<svg version="1.1" xmlns="http://www.w3.org/2000/svg" viewBox="0 0 2048 660" width="1024" height="330" style="height: 330px; width: 1024px">
  <path d="M 0 0 L 2048 0 L 2048 660 L 0 660 L 0 0 z" transform="translate(0,0)" fill="#000000" />
  <path d="M 754.744 283.199 C 779.347 281.054 793.022 285.43 806.108 306.648 C 808.67 303.417 811.392 300.317 814.264 297.357 C 824.99 286.436 835.864 283.016 850.605 282.845 C 896.758 282.31 901.064 321.907 900.765 357.9 C 900.537 385.269 900.709 412.391 900.608 439.343 L 860.786 439.644 L 860.875 378.217 C 860.892 364.008 861.617 348.877 859.31 334.992 C 856.99 322.642 850.66 315.595 837.669 315.796 C 818.338 316.095 812.642 334.989 812.344 351.125 C 811.929 373.557 812.139 396.116 812.192 418.5 L 812.172 439.206 C 799.122 439.432 785.608 439.331 772.525 439.386 L 772.693 376.89 C 772.742 362.816 773.321 351.553 771.322 336.578 C 768.241 313.495 746.941 308.674 732.359 324.462 C 723.073 334.517 725.015 364.964 725.024 380.001 L 725.034 439.387 C 712.02 439.755 698.24 439.531 685.168 439.532 L 684.995 285.153 L 722.9 285.298 L 723.188 305.867 C 732.583 293.181 739.623 287.554 754.744 283.199 z" transform="translate(0,0)" fill="#FEFEFE" />
  <path d="M 308.072 307.813 C 336.793 307.463 366.258 307.788 395.038 307.778 L 395.077 449.243 L 448.877 449.177 C 439.403 458.976 429.662 469.821 420.342 479.857 C 411.834 488.4 403.36 498.075 395.227 507.054 L 307.804 507.004 L 308.072 307.813 z" transform="translate(0,0)" fill="#FEFEFE" />
  <path d="M 1445.64 285.133 L 1484.95 285.063 L 1474.26 320.61 C 1461.65 360.104 1449.38 399.707 1437.45 439.415 C 1425.32 439.679 1412.42 439.458 1400.22 439.46 C 1391.2 408.834 1377.35 364.321 1371.64 333.917 C 1362.38 369.131 1352.23 404.119 1343.4 439.445 L 1305.8 439.43 C 1289.79 391.835 1272.56 333.483 1258.81 285.292 C 1271.47 284.863 1286.48 285.185 1299.32 285.173 C 1307.85 321.598 1318.03 356.731 1325.81 393.543 C 1331.9 360.516 1345.98 319.113 1354.2 285.168 C 1366.04 285.03 1378.34 285.25 1390.23 285.295 C 1399.66 320.383 1411.52 358.914 1419.08 394.006 C 1420.81 382.214 1425.29 365.894 1428.21 354.022 C 1433.84 331.013 1439.65 308.049 1445.64 285.133 z" transform="translate(0,0)" fill="#FEFEFE" />
  <path d="M 454.469 153.074 L 539.811 153.146 L 539.84 352.583 C 523.432 352.392 506.687 352.574 490.25 352.586 L 453.044 352.652 L 453.048 210.959 L 399.9 211.013 C 416.553 192.191 437.015 171.162 454.469 153.074 z" transform="translate(0,0)" fill="#FEFEFE" />
  <path d="M 243.144 217.007 C 308.832 215.608 381.251 216.731 447.2 216.913 L 447.134 301.353 L 393.069 301.346 C 362.777 301.506 332.484 301.509 302.192 301.357 L 302.106 353.36 C 282.104 335.804 262.482 317.819 243.255 299.417 L 243.144 217.007 z" transform="translate(0,0)" fill="#FEFEFE" />
  <path d="M 546.149 307.428 C 553.63 310.935 595.552 351.232 604.306 359.518 L 604.312 443.027 L 458.5 443.146 L 401.017 443.13 L 401.045 358.567 C 449.433 358.21 497.824 358.195 546.212 358.523 L 546.149 307.428 z" transform="translate(0,0)" fill="#FEFEFE" />
  <path d="M 1153.95 191.152 C 1155.75 193.557 1154.89 290.957 1154.85 303.864 C 1156.94 300.876 1159.26 298.065 1161.81 295.459 C 1186.45 270.454 1238.35 282.881 1242.31 320.684 C 1244.09 337.723 1243.98 350.492 1243.99 367.462 L 1244.05 439.308 L 1204.2 439.388 C 1204.24 411.137 1205.68 366.656 1203.71 339.487 C 1201.89 325.921 1197.08 315.038 1181.41 315.54 C 1150.35 316.536 1154.81 358.876 1154.83 379.177 L 1154.96 439.45 L 1115.04 439.486 L 1115.02 207.341 C 1128.06 202.106 1141.04 196.709 1153.95 191.152 z" transform="translate(0,0)" fill="#FEFEFE" />
  <path d="M 1736.62 283.241 C 1798.47 276.319 1814.55 320.983 1813.82 373.167 L 1717.78 373.303 C 1720.36 397.586 1732.29 420.534 1763.05 410.258 C 1770.64 407.722 1775.76 398.769 1778.28 391.373 L 1795.69 399.358 L 1811 406.174 C 1800.71 424.836 1787.34 437.421 1765.8 441.538 C 1724.2 449.365 1687.6 428.468 1680.56 385.2 C 1673.25 340.271 1685.6 292.347 1736.62 283.241 z" transform="translate(0,0)" fill="#FEFEFE" />
  <path d="M 1742.26 312.238 C 1742.72 312.184 1743.19 312.143 1743.65 312.114 C 1767.31 310.65 1774.13 328.004 1775.38 348.761 L 1752.95 348.705 C 1741.03 348.715 1729.11 348.628 1717.19 348.443 C 1721.45 330.012 1722.97 319.066 1742.26 312.238 z" transform="translate(0,0)" fill="#000000" />
  <path d="M 1055.72 233.976 C 1058.19 236.476 1057.15 278.339 1057.14 285.168 L 1089.08 285.154 L 1089.05 314.912 L 1057.28 314.936 C 1056.83 329.612 1056.43 345.664 1057.01 360.291 C 1058.26 392.243 1049.19 415.21 1090.46 406.297 L 1091.03 438.308 C 1081.76 440.341 1076.66 441.162 1067.21 441.992 C 1028.33 442.297 1017.2 424.318 1017.32 387.085 C 1017.4 363.282 1017.32 338.792 1017.37 314.937 L 996.146 314.872 L 996.126 285.23 L 1017.33 285.181 L 1017.38 248.772 C 1030.28 244.153 1043.06 239.219 1055.72 233.976 z" transform="translate(0,0)" fill="#FEFEFE" />
  <path d="M 1654.67 282.357 C 1659.77 282.156 1666.45 282.95 1671.65 283.412 C 1670.75 295.208 1668.31 309.781 1666.62 321.69 C 1618.09 311.546 1619.34 353.395 1619.35 387.046 L 1619.36 439.354 C 1611.76 439.481 1588.27 440.916 1580.6 438.523 C 1580.12 438.374 1579.97 436.076 1579.85 435.25 C 1580.21 385.226 1579.84 335.2 1578.73 285.187 C 1591.2 284.983 1604.28 285.228 1616.79 285.27 L 1616.97 312.411 C 1625.1 294.045 1634.57 284.71 1654.67 282.357 z" transform="translate(0,0)" fill="#FEFEFE" />
  <path d="M 933.124 285.232 L 972.319 285.139 L 972.291 385.992 C 972.292 400.519 973.021 425.553 971.941 439.258 C 958.968 439.448 945.992 439.502 933.017 439.42 L 933.124 285.232 z" transform="translate(0,0)" fill="#FEFEFE" />
  <path d="M 1507 285.142 L 1546.06 285.074 L 1545.9 439.242 C 1533.02 439.489 1519.77 439.33 1506.86 439.329 L 1507 285.142 z" transform="translate(0,0)" fill="#FEFEFE" />
  <path d="M 1523.35 223.443 C 1535.33 221.303 1546.8 229.222 1549.04 241.183 C 1551.28 253.144 1543.46 264.675 1531.52 267.018 C 1519.43 269.389 1507.73 261.453 1505.46 249.348 C 1503.19 237.242 1511.23 225.608 1523.35 223.443 z" transform="translate(0,0)" fill="#FEFEFE" />
  <path d="M 950.683 223.441 C 962.876 221.987 973.917 230.754 975.262 242.961 C 976.608 255.167 967.742 266.128 955.525 267.365 C 943.46 268.587 932.665 259.856 931.337 247.803 C 930.008 235.75 938.642 224.877 950.683 223.441 z" transform="translate(0,0)" fill="#FEFEFE" />
</svg>